<svg width="1600" height="900" viewBox="0 0 1600 900" fill="none" xmlns="http://www.w3.org/2000/svg">
  <defs>
    <linearGradient id="sky" x1="800" y1="40" x2="800" y2="640" gradientUnits="userSpaceOnUse">
      <stop offset="0" stop-color="#F7FBFF"/>
      <stop offset="0.48" stop-color="#E6F1FA"/>
      <stop offset="1" stop-color="#BFD5EA"/>
    </linearGradient>
    <linearGradient id="water" x1="800" y1="640" x2="800" y2="900" gradientUnits="userSpaceOnUse">
      <stop offset="0" stop-color="#AEC8DD"/>
      <stop offset="1" stop-color="#7FA5C3"/>
    </linearGradient>
    <linearGradient id="tower" x1="0" y1="0" x2="0" y2="1">
      <stop offset="0" stop-color="#5D7590"/>
      <stop offset="1" stop-color="#324A63"/>
    </linearGradient>
    <filter id="softBlur" x="-20%" y="-20%" width="140%" height="140%">
      <feGaussianBlur stdDeviation="16"/>
    </filter>
  </defs>

  <rect width="1600" height="900" fill="url(#sky)"/>
  <circle cx="1130" cy="160" r="68" fill="#FFF9E8" opacity="0.75"/>
  <path d="M0 505C120 464 238 450 353 463C519 481 573 531 737 526C940 520 1048 430 1267 440C1388 445 1505 494 1600 547V655H0V505Z" fill="#CFDDEC"/>
  <path d="M0 547C130 514 243 511 366 535C535 568 634 624 806 611C988 597 1083 514 1271 523C1382 528 1500 567 1600 617V675H0V547Z" fill="#B7CAE0"/>

  <g opacity="0.6" filter="url(#softBlur)">
    <rect x="520" y="360" width="42" height="190" rx="4" fill="#5F7A92"/>
    <rect x="578" y="330" width="52" height="220" rx="4" fill="#577088"/>
    <rect x="646" y="300" width="70" height="250" rx="4" fill="#536B84"/>
    <rect x="735" y="270" width="78" height="280" rx="4" fill="#4C637B"/>
    <rect x="829" y="318" width="52" height="232" rx="4" fill="#556D85"/>
    <rect x="895" y="282" width="86" height="268" rx="4" fill="#4B6177"/>
    <rect x="1000" y="347" width="50" height="203" rx="4" fill="#597188"/>
  </g>

  <g>
    <rect x="0" y="640" width="1600" height="260" fill="url(#water)"/>
    <path d="M0 668C101 657 203 650 304 654C421 659 523 681 639 680C752 679 859 653 970 652C1106 651 1215 682 1349 678C1439 676 1520 663 1600 650V900H0V668Z" fill="#90B4D1" opacity="0.82"/>
    <path d="M0 703C85 697 188 689 295 693C440 699 566 725 709 724C854 723 993 696 1137 697C1291 698 1442 722 1600 715V900H0V703Z" fill="#79A1C1" opacity="0.78"/>
    <path d="M0 748C151 738 301 735 452 748C564 758 676 777 790 777C916 777 1039 752 1164 754C1312 757 1457 785 1600 788V900H0V748Z" fill="#5E89AD" opacity="0.45"/>
  </g>

  <g>
    <rect x="412" y="511" width="58" height="109" rx="3" fill="url(#tower)"/>
    <rect x="478" y="490" width="44" height="130" rx="3" fill="url(#tower)"/>
    <rect x="529" y="425" width="53" height="195" rx="3" fill="url(#tower)"/>
    <rect x="587" y="444" width="32" height="176" rx="3" fill="url(#tower)"/>
    <rect x="626" y="392" width="88" height="228" rx="4" fill="url(#tower)"/>
    <rect x="719" y="342" width="80" height="278" rx="4" fill="url(#tower)"/>
    <rect x="805" y="453" width="44" height="167" rx="3" fill="url(#tower)"/>
    <rect x="855" y="425" width="52" height="195" rx="3" fill="url(#tower)"/>
    <rect x="913" y="368" width="95" height="252" rx="4" fill="url(#tower)"/>
    <rect x="1014" y="401" width="56" height="219" rx="3" fill="url(#tower)"/>
    <rect x="1078" y="465" width="50" height="155" rx="3" fill="url(#tower)"/>
    <rect x="1135" y="520" width="45" height="100" rx="3" fill="url(#tower)"/>
    <rect x="1187" y="482" width="40" height="138" rx="3" fill="url(#tower)"/>
    <rect x="1236" y="536" width="66" height="84" rx="3" fill="url(#tower)"/>
    <path d="M754 298H762L770 342H746L754 298Z" fill="#324A63"/>
    <path d="M943 325H955L967 368H931L943 325Z" fill="#324A63"/>
  </g>

  <g opacity="0.36">
    <rect x="543" y="447" width="6" height="8" fill="#DCE8F2"/>
    <rect x="555" y="447" width="6" height="8" fill="#DCE8F2"/>
    <rect x="543" y="463" width="6" height="8" fill="#DCE8F2"/>
    <rect x="555" y="463" width="6" height="8" fill="#DCE8F2"/>
    <rect x="654" y="421" width="7" height="9" fill="#DCE8F2"/>
    <rect x="669" y="421" width="7" height="9" fill="#DCE8F2"/>
    <rect x="684" y="421" width="7" height="9" fill="#DCE8F2"/>
    <rect x="654" y="439" width="7" height="9" fill="#DCE8F2"/>
    <rect x="669" y="439" width="7" height="9" fill="#DCE8F2"/>
    <rect x="684" y="439" width="7" height="9" fill="#DCE8F2"/>
    <rect x="739" y="373" width="8" height="10" fill="#DCE8F2"/>
    <rect x="756" y="373" width="8" height="10" fill="#DCE8F2"/>
    <rect x="773" y="373" width="8" height="10" fill="#DCE8F2"/>
    <rect x="739" y="392" width="8" height="10" fill="#DCE8F2"/>
    <rect x="756" y="392" width="8" height="10" fill="#DCE8F2"/>
    <rect x="773" y="392" width="8" height="10" fill="#DCE8F2"/>
    <rect x="943" y="398" width="8" height="10" fill="#DCE8F2"/>
    <rect x="960" y="398" width="8" height="10" fill="#DCE8F2"/>
    <rect x="977" y="398" width="8" height="10" fill="#DCE8F2"/>
    <rect x="943" y="417" width="8" height="10" fill="#DCE8F2"/>
    <rect x="960" y="417" width="8" height="10" fill="#DCE8F2"/>
    <rect x="977" y="417" width="8" height="10" fill="#DCE8F2"/>
  </g>

  <rect x="0" y="618" width="1600" height="12" fill="#597B95" opacity="0.35"/>
</svg>
